<svg xmlns="http://www.w3.org/2000/svg" width="512" height="512" viewBox="0 0 512 512">
<style>
  .mark { fill:#8b1a1a; }
  @media (prefers-color-scheme: dark) { .mark { fill:#ff5b52; } }
</style>
<defs>
  <mask id="cut" maskUnits="userSpaceOnUse" x="0" y="0" width="512" height="512">
    <rect x="0" y="0" width="512" height="512" fill="#fff"/>
    <path d="M157.8482395029185 464.45877827689156 281.65769158350594 183.98429136293947H359.789870080964L484.0 464.45877827689156H401.46036527960837L379.42308416494063 409.96659224789516H260.8224439841838L238.7851628695161 464.45877827689156ZM284.06175861419695 351.46762783441375H356.1837695349275L320.1227640745622 261.715792021949Z" fill="#000" stroke="#000" stroke-width="17.0" stroke-linejoin="round"/>
  </mask>
</defs>

<path class="mark" d="M146.19996234230845 339.2346881136186Q111.7416682357372 339.2346881136186 79.68744115985695 330.8204535062Q47.633214083976696 322.40621889878145 28.00000000000005 308.38249455308386L54.044059499152745 249.8835301396024Q72.87591790623239 262.304543131506 97.71794389003958 269.9174220620276Q122.55996987384677 277.53030099254914 146.60064018075695 277.53030099254914Q171.04198832611564 277.53030099254914 181.65995104500098 271.11945557737306Q192.2779137638863 264.70861016219703 192.2779137638863 254.69166420098446Q192.2779137638863 245.07539607822036 183.66334023724346 239.46590633994134Q175.04876671060066 233.85641660166232 160.8247034456788 230.25031605562577Q146.60064018075695 226.64421550958923 129.5718320466956 223.03811496355272Q112.5430239126342 219.4320144175162 95.51421577857282 214.0228635984614Q78.48540764451144 208.61371277940663 64.26134437958957 199.39812249509106Q50.037281114667714 190.18253221077546 41.4227075880249 175.35745218818084Q32.808134061382084 160.53237216558625 32.808134061382084 138.49509105091857Q32.808134061382084 113.65306506711138 46.63151948785544 93.01815638701349Q60.45490491432879 72.3832477069156 87.90133684805124 59.96223471501199Q115.34776878177371 47.54122172310838 157.01826398041803 47.54122172310838Q184.26435699491623 47.54122172310838 211.10977217096593 53.75172821906017Q237.95518734701565 59.96223471501196 258.79043494633777 71.98256986846707L234.3490868009791 130.882212120397Q214.31519487855397 120.06391048228744 194.68198079457733 114.65475966323265Q175.04876671060066 109.24560884417787 156.61758614196953 109.24560884417787Q131.77556015816234 109.24560884417787 121.5582752777255 116.65814885547516Q111.34099039728866 124.07068886677246 111.34099039728866 134.48831266643356Q111.34099039728866 143.70390295074913 119.95556392393149 148.91271485057968Q128.57013745057432 154.1215267504102 142.79420071549617 157.7276272964467Q157.01826398041803 161.33372784248326 174.04707211447942 164.9398283885198Q191.07588024854078 168.54592893455631 207.9043494633779 173.9550797536111Q224.73281867821504 179.3642305726659 238.9568819431369 188.3794819377572Q253.18094520805874 197.39473330284852 261.79551873470155 212.01947440621888Q270.41009226134435 226.64421550958923 270.41009226134435 248.6814966242569Q270.41009226134435 273.1228447696156 256.7870457540953 293.7577534497135Q243.16399924684617 314.3926621298114 215.51722839389947 326.813675121715Q187.87045754095277 339.2346881136186 146.19996234230845 339.2346881136186Z" mask="url(#cut)"/>
<path class="mark" d="M157.8482395029185 464.45877827689156 281.65769158350594 183.98429136293947H359.789870080964L484.0 464.45877827689156H401.46036527960837L379.42308416494063 409.96659224789516H260.8224439841838L238.7851628695161 464.45877827689156ZM284.06175861419695 351.46762783441375H356.1837695349275L320.1227640745622 261.715792021949Z"/>
</svg>